# xmcd
#
# Track frame offsets:
#	150
#	13141
#	25654
#	36458
#	57127
#
# Disc length: 864 seconds
#
# Revision: 1
# Processed by: cddbd v1.4PL0 Copyright (c) Steve Scherf et al.
# Submitted via: audiograbber 1.80
#
DISCID=38035e05
DTITLE=Die My Demon - Love The Game...Hate The Players!
DYEAR=1900
DGENRE=
TTITLE0=don´t push your threats on me
TTITLE1=your business
TTITLE2=lordz of tha dance
TTITLE3=DMD message
TTITLE4=*angel reprezenta
EXTD=
EXTT0=
EXTT1=
EXTT2=
EXTT3=
EXTT4=
PLAYORDER=
